:SAMPLES-PER-SECOND 30
:FRAME-RANGE 1-2775
:FULLY-SPECIFIED
:DEGREES
2689
root  -29.5887 39.1992 -37.6143 -3.88504 -26.1679 4.68176
RightUpLeg  8.73563 -11.1326 -10.8527
RightLeg  31.899 -9.47268 -6.53566
RightFoot  -8.47802 -0.738354 26.7435
RightToes  -5.28216e-011 1.2921e-014 -6.02303e-014
Spine  1.63073 3.41451 2.14343
Spine1  -0.730207 4.67639 -8.736
HEad  2.01148 30.1867 -4.30833
LeftShoulder1  0.900796 1.20135 -33.0462
LeftArm  6.79277 16.0394 -30.1809
LeftForeArm  6.92025 -8.20295 -15.4796
LeftHand  0.641578 -3.29834 -8.33153
RightShoulder  5.93454 6.36731 52.625
RightArm  13.2352 -2.67998 12.5928
RightForeArm  19.0751 -2.54339 17.6995
RightHand  0.68666 5.18205 7.20906
LeftUpLeg  -12.0694 5.97133 -6.85774
LeftLeg  12.7474 17.5357 -0.0141534
LeftFoot  -0.0323584 -0.543852 5.49053
LeftToes  -2.158e-010 -1.26819e-010 -1.05346e-011
2690
root  -29.8217 39.3249 -36.7342 -4.26141 -25.5987 4.63193
RightUpLeg  4.36318 -9.08485 -10.8747
RightLeg  41.2835 -8.58389 -8.26671
RightFoot  -0.793864 -1.75525 18.7998
RightToes  -5.28216e-011 1.2921e-014 -6.02303e-014
Spine  1.72703 3.19014 1.60413
Spine1  -0.623817 4.38618 -8.41776
HEad  1.24922 31.4009 -5.49325
LeftShoulder1  0.878824 1.25553 -33.0109
LeftArm  8.38327 16.8518 -30.3061
LeftForeArm  6.01238 -9.01255 -15.2195
LeftHand  0.697485 -3.56687 -8.78255
RightShoulder  5.76908 6.08055 52.688
RightArm  16.5681 -2.96 13.1109
RightForeArm  19.7182 0.120742 17.5171
RightHand  0.827812 5.53329 8.44607
LeftUpLeg  -9.69141 5.5111 -6.81793
LeftLeg  11.9923 17.4732 -0.602299
LeftFoot  -1.26919 -0.459833 5.30139
LeftToes  -2.158e-010 -1.26819e-010 -1.05346e-011
2691
root  -30.0582 39.2549 -36.0307 -4.80386 -24.8627 4.83322
RightUpLeg  0.436404 -7.14747 -10.9916
RightLeg  48.6466 -6.93515 -8.69273
RightFoot  3.31253 -1.98262 15.51
RightToes  -5.28216e-011 1.2921e-014 -6.02303e-014
Spine  2.298 3.04529 0.0605469
Spine1  -0.255229 3.96542 -7.94777
HEad  -0.30199 32.4057 -6.90487
LeftShoulder1  0.916694 1.16625 -33.1387
LeftArm  10.6004 16.7202 -30.3785
LeftForeArm  5.00277 -9.40551 -15.2116
LeftHand  0.705899 -3.57914 -8.87794
RightShoulder  5.66699 5.84919 53.0248
RightArm  17.6951 -3.15715 13.3551
RightForeArm  19.8336 2.73326 16.899
RightHand  0.837335 5.66967 8.43305
LeftUpLeg  -8.59877 5.693 -7.0852
LeftLeg  13.4463 16.6448 -0.448831
LeftFoot  -3.11774 -0.353837 5.18055
LeftToes  -2.158e-010 -1.26819e-010 -1.05346e-011
2692
root  -30.3087 39.1989 -35.3839 -5.03531 -23.7632 4.62292
RightUpLeg  -2.9737 -5.87784 -10.7753
RightLeg  53.6759 -5.00272 -7.65061
RightFoot  1.73531 -1.89005 16.4901
RightToes  -5.28216e-011 1.2921e-014 -6.02303e-014
Spine  3.035 2.78939 -1.27951
Spine1  -0.290325 3.37876 -7.16206
HEad  -1.43181 33.1369 -7.8612
LeftShoulder1  0.941862 1.11316 -33.3201
LeftArm  11.4604 15.9289 -30.4499
LeftForeArm  5.35349 -9.01606 -15.4742
LeftHand  0.686365 -3.4904 -8.7194
RightShoulder  5.61492 5.71044 53.3176
RightArm  18.4544 -3.07291 13.5423
RightForeArm  17.4708 4.36814 16.5209
RightHand  0.677283 5.39786 6.95134
LeftUpLeg  -7.81318 6.11613 -7.09608
LeftLeg  15.0633 15.1242 -0.0759868
LeftFoot  -4.86082 -0.245592 4.85328
LeftToes  -2.158e-010 -1.26819e-010 -1.05346e-011
2693
root  -30.5673 39.184 -34.7642 -5.09778 -22.3565 4.24701
RightUpLeg  -6.24727 -4.97117 -10.3174
RightLeg  56.5033 -4.4303 -7.59493
RightFoot  1.10747 -1.77637 16.2564
RightToes  -5.28216e-011 1.2921e-014 -6.02303e-014
Spine  3.75902 2.52241 -2.15502
Spine1  -0.518964 2.88551 -6.64538
HEad  -1.64107 33.1705 -8.00164
LeftShoulder1  0.968195 1.04734 -33.3373
LeftArm  10.2426 14.6905 -30.6935
LeftForeArm  7.16124 -8.0922 -15.7852
LeftHand  0.6688 -3.49765 -8.48337
RightShoulder  5.6884 5.78053 53.595
RightArm  17.0357 -2.93409 13.6417
RightForeArm  16.0597 4.7407 16.3256
RightHand  0.504441 5.06392 5.28424
LeftUpLeg  -6.82475 6.349 -6.87278
LeftLeg  15.9564 13.404 -0.03735
LeftFoot  -6.20373 -0.170947 4.64155
LeftToes  -2.158e-010 -1.26819e-010 -1.05346e-011
2694
root  -30.825 39.2237 -34.1571 -4.92706 -20.7208 3.60419
RightUpLeg  -9.12628 -4.28469 -9.57257
RightLeg  56.8404 -5.14485 -8.84461
RightFoot  0.256904 -1.59094 15.5933
RightToes  -5.28216e-011 1.2921e-014 -6.02303e-014
Spine  4.13234 2.2621 -2.42946
Spine1  -0.507116 2.55266 -6.31371
HEad  -1.44669 32.699 -7.68788
LeftShoulder1  1.00461 0.944909 -33.1857
LeftArm  8.49377 13.2447 -31.2034
LeftForeArm  8.61269 -7.51551 -15.8555
LeftHand  0.652567 -3.56929 -8.20066
RightShoulder  5.76111 5.87286 53.7383
RightArm  15.6933 -2.55308 13.7149
RightForeArm  15.5621 4.9678 16.1443
RightHand  0.413507 4.90127 4.35586
LeftUpLeg  -5.67757 6.59878 -6.28335
LeftLeg  16.1633 11.5059 -0.335678
LeftFoot  -7.2159 -0.119144 4.51297
LeftToes  -2.158e-010 -1.26819e-010 -1.05346e-011
